<svg width="1042" height="408" viewBox="0 0 1042 408" fill="none" xmlns="http://www.w3.org/2000/svg">
<g clip-path="url(#clip0_1640_36)" filter="url(#filter0_d_1640_36)">
<path d="M519.242 141.402C514.486 141.402 510.35 140.367 507.145 138.195C503.836 136.023 501.561 133.023 500.217 129.299L508.385 124.438C510.247 129.403 513.969 131.989 519.553 131.989C522.241 131.989 524.206 131.472 525.446 130.541C526.687 129.506 527.308 128.265 527.308 126.817C527.308 125.058 526.584 123.714 525.033 122.783C523.482 121.852 520.793 120.714 516.864 119.576C514.693 118.955 512.832 118.231 511.281 117.611C509.833 116.99 508.282 116.059 506.731 115.025C505.283 113.887 504.146 112.542 503.319 110.784C502.492 109.129 502.181 107.163 502.181 104.888C502.181 100.44 503.732 96.9228 506.834 94.2334C509.936 91.5439 513.762 90.1992 518.105 90.1992C522.034 90.1992 525.446 91.2336 528.445 93.199C531.444 95.1643 533.822 97.8537 535.476 101.267L527.411 106.025C525.446 101.784 522.344 99.7156 518.105 99.7156C516.14 99.7156 514.589 100.233 513.349 101.164C512.211 102.095 511.694 103.233 511.694 104.681C511.694 106.232 512.315 107.474 513.555 108.508C514.9 109.439 517.278 110.473 520.897 111.611C522.344 112.128 523.482 112.439 524.206 112.749C525.033 112.956 526.067 113.37 527.308 113.99C528.652 114.507 529.686 115.025 530.306 115.438C531.03 115.956 531.857 116.576 532.788 117.3C533.718 118.128 534.442 118.955 534.856 119.783C535.373 120.61 535.786 121.645 536.097 122.886C536.51 124.024 536.614 125.369 536.614 126.713C536.614 131.265 534.959 134.885 531.65 137.574C528.652 140.057 524.516 141.402 519.242 141.402Z" fill="black"/>
<path d="M590.485 134.057C585.625 139.022 579.628 141.402 572.597 141.402C565.566 141.402 559.569 138.919 554.709 134.057C549.849 129.092 547.471 122.989 547.471 115.852C547.471 108.715 549.849 102.612 554.709 97.7501C559.569 92.785 565.566 90.3025 572.597 90.3025C579.628 90.3025 585.625 92.785 590.485 97.7501C595.345 102.715 597.827 108.715 597.827 115.852C597.827 122.989 595.448 129.092 590.485 134.057ZM561.43 127.437C564.428 130.437 568.151 131.885 572.597 131.885C577.043 131.885 580.766 130.437 583.764 127.437C586.763 124.437 588.314 120.507 588.314 115.852C588.314 111.197 586.763 107.267 583.764 104.267C580.766 101.267 577.043 99.7155 572.597 99.7155C568.151 99.7155 564.428 101.267 561.43 104.267C558.431 107.267 556.88 111.197 556.88 115.852C556.984 120.507 558.431 124.437 561.43 127.437Z" fill="black"/>
<path d="M640.427 100.543H620.988V112.232H639.91V121.541H621.091V140.471H611.578V91.2334H640.53V100.543H640.427Z" fill="black"/>
<path d="M686.44 91.2334V100.543H673.308V140.471H663.795V100.543H650.767V91.2334H686.44Z" fill="black"/>
<path d="M708.877 140.471L695.332 91.3369H705.362L714.668 127.748L724.801 91.3369H732.97L743.206 127.748L752.512 91.3369H762.542L748.997 140.471H738.14L729.04 107.991L719.941 140.471H708.877Z" fill="black"/>
<path d="M803.282 140.471L800.386 131.575H781.051L778.155 140.471H767.815L784.773 91.3369H796.664L813.725 140.471H803.282ZM784.049 122.576H797.388L790.77 102.405L784.049 122.576Z" fill="black"/>
<path d="M851.881 140.471L842.161 123.403H834.923V140.471H825.41V91.2334H844.849C849.296 91.2334 853.121 92.785 856.327 95.9916C859.429 99.1982 861.083 103.025 861.083 107.473C861.083 110.473 860.256 113.369 858.498 115.955C856.74 118.541 854.569 120.507 851.674 121.748L862.427 140.264H851.881V140.471ZM834.923 100.336V114.921H844.746C846.504 114.921 848.055 114.197 849.399 112.852C850.743 111.404 851.364 109.646 851.364 107.68C851.364 105.715 850.743 103.956 849.399 102.508C848.055 101.06 846.607 100.44 844.746 100.44H834.923V100.336Z" fill="black"/>
<path d="M884.348 131.161H904.821V140.471H874.835V91.2334H904.511V100.543H884.451V110.99H902.856V120.093H884.451V131.161H884.348Z" fill="black"/>
<path d="M521.931 179.053C528.548 179.053 534.132 181.433 538.578 186.191C543.024 190.949 545.299 196.742 545.299 203.672C545.299 210.602 543.024 216.395 538.578 221.153C534.132 225.911 528.548 228.291 521.931 228.291H502.698V179.157H521.931V179.053ZM521.931 218.981C526.17 218.981 529.582 217.533 532.167 214.74C534.752 211.844 536.096 208.223 536.096 203.672C536.096 199.121 534.752 195.5 532.167 192.604C529.582 189.708 526.067 188.363 521.931 188.363H512.211V218.981H521.931V218.981Z" fill="black"/>
<path d="M568.564 218.981H589.037V228.291H559.051V179.157H588.727V188.467H568.564V198.914H586.969V208.017H568.564V218.981Z" fill="black"/>
<path d="M614.68 228.291L598.343 179.157H608.786L620.677 216.912L632.465 179.157H642.908L626.571 228.291H614.68Z" fill="black"/>
<path d="M664.106 218.981H684.579V228.291H654.593V179.157H684.269V188.467H664.209V198.914H682.614V208.017H664.209V218.981H664.106Z" fill="black"/>
<path d="M707.74 218.981H726.249V228.291H698.228V179.157H707.74V218.981Z" fill="black"/>
<path d="M776.398 221.877C771.538 226.842 765.541 229.222 758.51 229.222C751.479 229.222 745.482 226.739 740.622 221.877C735.762 216.912 733.384 210.809 733.384 203.672C733.384 196.535 735.762 190.432 740.622 185.57C745.482 180.605 751.479 178.123 758.51 178.123C765.541 178.123 771.538 180.605 776.398 185.57C781.258 190.535 783.74 196.535 783.74 203.672C783.74 210.809 781.361 216.912 776.398 221.877ZM747.446 215.257C750.445 218.257 754.167 219.705 758.613 219.705C763.06 219.705 766.782 218.257 769.781 215.257C772.779 212.258 774.33 208.327 774.33 203.672C774.33 199.017 772.779 195.087 769.781 192.087C766.782 189.087 763.06 187.536 758.613 187.536C754.167 187.536 750.445 189.087 747.446 192.087C744.448 195.087 742.897 199.017 742.897 203.672C742.897 208.327 744.448 212.154 747.446 215.257Z" fill="black"/>
<path d="M815.483 179.054C820.136 179.054 824.065 180.605 827.27 183.812C830.476 187.018 832.027 190.949 832.027 195.5C832.027 200.155 830.476 204.086 827.27 207.189C824.065 210.396 820.136 211.947 815.483 211.947H807.004V228.084H797.491V178.95H815.483V179.054ZM815.483 203.052C817.551 203.052 819.205 202.327 820.549 200.983C821.894 199.535 822.514 197.776 822.514 195.604C822.514 193.432 821.894 191.673 820.549 190.225C819.205 188.777 817.551 188.156 815.483 188.156H807.004V203.052H815.483V203.052Z" fill="black"/>
<path d="M892.723 179.053V228.187H883.211V196.328L869.562 219.188H868.424L854.776 196.431V228.291H845.263V179.157H855.086L869.045 202.431L882.9 179.157H892.723V179.053Z" fill="black"/>
<path d="M918.263 218.981H938.736V228.291H908.75V179.157H938.426V188.467H918.366V198.914H936.771V208.017H918.366V218.981H918.263Z" fill="black"/>
<path d="M980.406 179.053H989.919V228.187H982.681L961.898 198.086V228.187H952.385V179.053H959.623L980.406 209.051V179.053Z" fill="black"/>
<path d="M1038 179.053V188.363H1024.87V228.291H1015.36V188.363H1002.33V179.053H1038Z" fill="black"/>
<path d="M525.653 317.042C518.312 317.042 512.315 314.559 507.558 309.697C502.802 304.732 500.424 298.733 500.424 291.492C500.424 284.251 502.802 278.148 507.558 273.287C512.315 268.322 518.312 265.943 525.653 265.943C529.996 265.943 534.132 266.977 537.751 269.149C541.474 271.218 544.369 274.011 546.437 277.528L538.165 282.389C536.924 280.217 535.27 278.459 532.995 277.218C530.823 275.976 528.238 275.356 525.55 275.356C520.794 275.356 517.071 276.804 514.073 279.803C511.177 282.803 509.73 286.734 509.73 291.492C509.73 296.25 511.177 300.078 514.073 303.077C516.968 306.077 520.794 307.525 525.55 307.525C528.342 307.525 530.823 306.905 532.995 305.663C535.27 304.422 536.924 302.664 538.165 300.491L546.437 305.353C544.369 308.87 541.474 311.766 537.751 313.835C534.236 316.007 530.1 317.042 525.653 317.042Z" fill="black"/>
<path d="M599.687 309.697C594.827 314.663 588.83 317.042 581.799 317.042C574.768 317.042 568.771 314.559 563.911 309.697C559.051 304.732 556.673 298.629 556.673 291.492C556.673 284.355 559.051 278.252 563.911 273.39C568.771 268.425 574.768 265.943 581.799 265.943C588.83 265.943 594.827 268.425 599.687 273.39C604.547 278.355 607.029 284.355 607.029 291.492C607.029 298.629 604.65 304.732 599.687 309.697ZM570.632 303.077C573.63 306.077 577.353 307.525 581.799 307.525C586.245 307.525 589.968 306.077 592.966 303.077C595.965 300.078 597.516 296.147 597.516 291.492C597.516 286.837 595.965 282.907 592.966 279.907C589.968 276.907 586.245 275.356 581.799 275.356C577.353 275.356 573.63 276.907 570.632 279.907C567.633 282.907 566.082 286.837 566.082 291.492C566.186 296.147 567.633 299.974 570.632 303.077Z" fill="black"/>
<path d="M668.138 266.874V316.007H658.625V284.148L644.977 307.008H643.839L630.19 284.251V316.111H620.678V266.874H630.501L644.46 290.147L658.315 266.874H668.138Z" fill="black"/>
<path d="M702.26 266.874C706.913 266.874 710.842 268.425 714.048 271.632C717.253 274.838 718.804 278.769 718.804 283.32C718.804 287.975 717.253 291.906 714.048 295.009C710.842 298.216 706.913 299.767 702.26 299.767H693.678V315.904H684.165V266.874H702.26ZM702.26 290.871C704.328 290.871 705.982 290.147 707.327 288.803C708.671 287.355 709.291 285.596 709.291 283.424C709.291 281.252 708.671 279.493 707.327 278.045C705.982 276.597 704.328 275.976 702.26 275.976H693.678V290.871H702.26Z" fill="black"/>
<path d="M758.2 316.007L755.304 307.111H735.969L733.073 316.007H722.733L739.691 266.874H751.582L768.643 316.007H758.2ZM738.967 298.112H752.306L745.688 278.045L738.967 298.112Z" fill="black"/>
<path d="M808.245 266.874H817.758V316.007H810.52L789.736 285.906V316.007H780.224V266.874H787.462L808.245 296.871V266.874Z" fill="black"/>
<path d="M872.147 266.874L855.499 296.871V316.007H845.986V296.871L829.442 266.874H840.299L850.846 287.355L861.393 266.874H872.147Z" fill="black"/>
<path d="M4 317.973V108.922L59.1122 76.5452V317.973H4Z" fill="#508DFF"/>
<path fill-rule="evenodd" clip-rule="evenodd" d="M141.005 153.09H189.293V99.4053H141.005V28.5493L85.8926 60.719V99.819L85.996 101.164C85.996 125.265 85.8926 153.194 85.8926 153.194V243.289C85.8926 272.977 93.5442 293.664 108.951 305.25C124.668 316.835 151.345 320.455 189.293 316.111V265.425C178.746 266.046 169.957 266.15 162.822 265.839C155.688 265.219 150.311 263.253 146.588 259.736C142.866 256.323 141.005 250.737 141.005 243.289V153.09Z" fill="#508DFF"/>
<path d="M11.9618 47.8924C17.5454 53.2713 24.0596 55.9607 31.401 55.9607C39.0526 55.9607 45.5668 53.2713 50.8402 47.8924C56.4238 42.3067 59.2156 35.6866 59.2156 28.1355C59.2156 20.5844 56.4238 14.0678 50.8402 8.37859C45.5668 2.79286 39.0526 0 31.5044 0C24.0596 0 17.5454 2.79286 11.9618 8.48203C6.6884 14.0678 4 20.6879 4 28.1355C4 35.5831 6.6884 42.3067 11.9618 47.8924Z" fill="#508DFF"/>
<path d="M269.738 400H214.522V94.854H269.738V400Z" fill="#508DFF"/>
<path fill-rule="evenodd" clip-rule="evenodd" d="M325.161 317.249C385.65 317.249 434.765 267.494 434.765 206.155C434.765 144.815 385.65 95.0608 325.161 95.0608C264.672 95.0608 215.557 144.815 215.557 206.155C215.557 267.494 264.672 317.249 325.161 317.249ZM325.161 261.702C355.457 261.702 379.963 236.876 379.963 206.155C379.963 175.433 355.457 150.608 325.161 150.608C294.864 150.608 270.359 175.433 270.359 206.155C270.359 236.876 294.968 261.702 325.161 261.702Z" fill="#508DFF"/>
</g>
<defs>
<filter id="filter0_d_1640_36" x="0" y="0" width="1042" height="408" filterUnits="userSpaceOnUse" color-interpolation-filters="sRGB">
<feFlood flood-opacity="0" result="BackgroundImageFix"/>
<feColorMatrix in="SourceAlpha" type="matrix" values="0 0 0 0 0 0 0 0 0 0 0 0 0 0 0 0 0 0 127 0" result="hardAlpha"/>
<feOffset dy="4"/>
<feGaussianBlur stdDeviation="2"/>
<feComposite in2="hardAlpha" operator="out"/>
<feColorMatrix type="matrix" values="0 0 0 0 0 0 0 0 0 0 0 0 0 0 0 0 0 0 0.25 0"/>
<feBlend mode="normal" in2="BackgroundImageFix" result="effect1_dropShadow_1640_36"/>
<feBlend mode="normal" in="SourceGraphic" in2="effect1_dropShadow_1640_36" result="shape"/>
</filter>
<clipPath id="clip0_1640_36">
<rect width="1034" height="400" fill="white" transform="translate(4)"/>
</clipPath>
</defs>
</svg>
